<svg width="32" height="32" viewBox="0 0 32 32" fill="none" xmlns="http://www.w3.org/2000/svg">
<g clip-path="url(#clip0_726_325498)">
<path fill-rule="evenodd" clip-rule="evenodd" d="M24.8927 22.0452H30.8662V20.0545H24.8927V22.0452ZM28.8742 10.1054H1V30.0095C1.00031 30.5374 1.21015 31.0436 1.58343 31.4168C1.9567 31.7901 2.46288 31.9999 2.99076 32.0003H28.8802C29.4083 32.0003 29.9147 31.7905 30.2883 31.4172C30.6618 31.0439 30.8718 30.5376 30.8721 30.0095V24.036H23.8973C23.7666 24.0362 23.6371 24.0105 23.5162 23.9606C23.3954 23.9106 23.2856 23.8373 23.1931 23.7448C23.1007 23.6524 23.0274 23.5426 22.9774 23.4217C22.9274 23.3009 22.9018 23.1714 22.902 23.0406V19.0591C22.902 18.7951 23.0068 18.5419 23.1935 18.3553C23.3802 18.1686 23.6333 18.0637 23.8973 18.0637H30.8662V12.0902C30.8659 11.5622 30.6559 11.0558 30.2824 10.6825C29.9088 10.3092 29.4023 10.0995 28.8742 10.0995V10.1054ZM28.8742 1.14577C28.8742 0.594882 28.6378 0.289883 28.1283 0.0818224C27.7335 -0.0742233 27.3504 0.0191677 26.8894 0.144477L1 8.10872H28.8742V1.13986V1.14577Z" fill="#fff"/>
</g>
<defs>
<clipPath id="clip0_726_325498">
<rect width="32" height="32" fill="white"/>
</clipPath>
</defs>
</svg>
