<svg width="32" height="32" viewBox="0 0 32 32" fill="none" xmlns="http://www.w3.org/2000/svg">
<g clip-path="url(#clip0_726_325488)">
<path d="M32 12.1294V12.6363C31.8374 12.9986 31.5482 13.2165 31.2094 13.4022C30.6717 13.7015 30.1488 14.0283 29.6123 14.3299C29.4689 14.4101 29.4497 14.5007 29.4519 14.6567C29.4647 15.5526 29.4647 16.4482 29.4519 17.3433C29.4519 17.5004 29.4711 17.5899 29.6123 17.6701C30.1488 17.9728 30.6717 18.2996 31.2094 18.5978C31.5482 18.7835 31.8351 19.0025 32 19.3637V19.8706C31.9435 19.9692 31.8871 20.0666 31.8317 20.1653C30.3807 22.7177 28.9297 25.2698 27.4788 27.8216C27.1399 28.4075 26.6283 28.5394 26.0466 28.2011C25.4649 27.8628 24.8539 27.5131 24.2643 27.153C24.2073 27.1118 24.1385 27.0909 24.0687 27.0936C23.9988 27.0963 23.9317 27.1224 23.878 27.1679C23.1292 27.6266 22.3736 28.0658 21.6089 28.4912C21.534 28.5201 21.4706 28.5733 21.4285 28.6426C21.3864 28.7118 21.368 28.7932 21.3763 28.8742C21.3875 29.5725 21.3842 30.2697 21.3763 30.968C21.3763 31.6147 21.0035 32 20.371 32C17.4548 32 14.5388 32 11.6233 32C10.9897 32 10.6204 31.6182 10.617 30.968C10.617 30.2708 10.6091 29.5725 10.617 28.8753C10.6256 28.7949 10.6082 28.7139 10.5675 28.6443C10.5267 28.5748 10.4648 28.5207 10.3911 28.4901C9.62605 28.0635 8.86969 27.6224 8.12198 27.1668C8.0679 27.1218 8.00066 27.0963 7.93077 27.0942C7.86088 27.0921 7.79228 27.1136 7.7357 27.1553C7.18227 27.4902 6.61979 27.8124 6.06071 28.1392C5.33446 28.5646 4.87251 28.4419 4.458 27.7126L0 19.8706V19.3637C0.161513 19.0197 0.433715 18.7904 0.762389 18.6138C1.30114 18.318 1.82296 17.99 2.36058 17.6896C2.52435 17.5979 2.54581 17.4935 2.54243 17.3124C2.52511 16.4378 2.52511 15.5629 2.54243 14.6876C2.54243 14.5076 2.52548 14.4033 2.36171 14.3115C1.82522 14.0111 1.3034 13.6809 0.763518 13.3862C0.434496 13.2286 0.166054 12.9649 0 12.6363L0 12.1294L0.198786 11.7786C1.63471 9.25589 3.07064 6.73322 4.50657 4.21056C4.85444 3.60053 5.35479 3.45949 5.95341 3.80464C6.55203 4.14978 7.14725 4.49264 7.73683 4.85154C7.79353 4.89309 7.8622 4.91439 7.93209 4.91211C8.00198 4.90983 8.06916 4.88409 8.12311 4.83893C8.87157 4.38103 9.62756 3.93841 10.3911 3.51109C10.4648 3.48046 10.5267 3.4263 10.5675 3.3568C10.6082 3.28729 10.6256 3.20622 10.617 3.12581C10.617 2.42749 10.617 1.72917 10.617 1.032C10.617 0.384133 10.9897 0 11.6233 0C14.5388 0 17.4548 0 20.371 0C21.0047 0 21.3729 0.38184 21.3763 1.032C21.3763 1.73032 21.3842 2.42864 21.3763 3.12581C21.3682 3.20673 21.3867 3.28807 21.4287 3.35729C21.4708 3.4265 21.5341 3.47975 21.6089 3.5088C22.3747 3.93459 23.1314 4.37568 23.8791 4.83205C23.9328 4.87728 23.9996 4.90326 24.0692 4.90595C24.1389 4.90865 24.2075 4.88791 24.2643 4.84696C24.8087 4.51672 25.3621 4.19909 25.9111 3.87688C26.6746 3.42968 27.1207 3.54778 27.5567 4.3149C29.0385 6.9186 30.5196 9.52344 32 12.1294ZM14.2313 20.0666C14.2133 19.961 14.188 19.8568 14.1556 19.7548C13.1519 17.0654 12.1515 14.3792 11.1546 11.696C11.0836 11.4718 10.9438 11.2765 10.7556 11.1389C10.5674 11.0013 10.3407 10.9285 10.1087 10.9312C9.62643 10.9151 9.2266 11.1983 9.03685 11.7029C8.02485 14.3838 7.01737 17.067 6.0144 19.7525C5.96501 19.8696 5.93927 19.9956 5.9387 20.1231C5.93813 20.2505 5.96274 20.3767 6.01107 20.4943C6.05941 20.612 6.13049 20.7185 6.22011 20.8077C6.30973 20.897 6.41606 20.967 6.53282 21.0138C7.03092 21.2133 7.54934 20.9679 7.7662 20.4175C7.91416 20.046 8.05647 19.671 8.18749 19.2938C8.20106 19.2177 8.24278 19.1498 8.30411 19.104C8.36543 19.0581 8.44171 19.0378 8.51729 19.0473C9.56017 19.0587 10.6019 19.0587 11.6425 19.0473C11.7184 19.0353 11.7958 19.0535 11.8588 19.0978C11.9219 19.1422 11.9658 19.2095 11.9814 19.2858C12.1237 19.7043 12.2728 20.1217 12.4467 20.5276C12.5321 20.7232 12.6812 20.8831 12.869 20.9802C13.0568 21.0773 13.2718 21.1058 13.4779 21.0608C13.6978 21.01 13.8934 20.8829 14.0309 20.7014C14.1684 20.5199 14.2393 20.2955 14.2313 20.0666ZM17.2616 17.4706C17.8004 17.4706 18.2985 17.4878 18.7954 17.4706C19.5988 17.4273 20.3576 17.0821 20.9242 16.5023C21.4908 15.9224 21.8246 15.1493 21.8608 14.3333C21.9455 12.7188 20.7505 11.196 19.1354 10.9942C18.2318 10.8796 17.3079 10.9335 16.3942 10.9266C15.7831 10.9266 15.3878 11.3119 15.3867 11.9311C15.3792 14.6471 15.3811 17.3636 15.3923 20.0804C15.4022 20.3 15.4714 20.5126 15.5923 20.695C15.6992 20.8534 15.8542 20.9719 16.0336 21.0325C16.2131 21.0932 16.4071 21.0926 16.5862 21.031C16.7787 20.9781 16.9486 20.862 17.0693 20.7009C17.1901 20.5397 17.2549 20.3425 17.2537 20.14C17.2627 19.2743 17.256 18.4086 17.256 17.4683L17.2616 17.4706ZM24.942 16.0017C24.942 14.6487 24.942 13.2967 24.942 11.9448C24.942 11.4861 24.7217 11.1421 24.3467 10.9954C23.7041 10.7374 23.0704 11.2132 23.0693 11.9632C23.0693 14.6456 23.0693 17.3284 23.0693 20.0116C23.0693 20.6503 23.4579 21.0837 24.0158 21.078C24.5738 21.0723 24.9431 20.64 24.9442 19.9944C24.9412 18.662 24.939 17.3303 24.9375 15.9994L24.942 16.0017Z" fill="#fff"/>
<path d="M11.1739 17.13H9.00415L10.0918 14.2187L11.1739 17.13Z" fill="#fff"/>
<path d="M17.2694 12.8427C17.8002 12.8427 18.3108 12.7968 18.81 12.8541C19.1448 12.8979 19.4516 13.067 19.6701 13.3283C19.8886 13.5896 20.0032 13.9243 19.9914 14.2668C19.966 14.6122 19.816 14.9358 19.57 15.1758C19.3241 15.4157 18.9995 15.5551 18.6586 15.5671C18.2656 15.5866 17.868 15.5855 17.475 15.574C17.4061 15.574 17.2818 15.4708 17.2807 15.4135C17.2649 14.5627 17.2694 13.7107 17.2694 12.8427Z" fill="#fff"/>
</g>
<defs>
<clipPath id="clip0_726_325488">
<rect width="32" height="32" fill="white"/>
</clipPath>
</defs>
</svg>
