<svg width="32" height="32" viewBox="0 0 32 32" fill="none" xmlns="http://www.w3.org/2000/svg">
<g clip-path="url(#clip0_726_325425)">
<path d="M7.56216 32C7.56216 29.8038 7.56216 27.6065 7.55591 25.4103C7.55591 25.1518 7.64242 25.033 7.86861 24.9225C9.52907 24.1042 11.1812 23.2714 12.8364 22.4448C12.9407 22.3948 13.0386 22.351 13.1783 22.2874V24.4763H18.807V22.2958C18.9112 22.3354 18.9925 22.3541 19.0613 22.3885C20.7822 23.2474 22.5011 24.1115 24.2241 24.9642C24.4033 25.0528 24.4482 25.1591 24.4482 25.3477C24.4409 27.5648 24.4482 29.7829 24.4482 32H24.3856C24.2897 31.9416 24.198 31.8749 24.0979 31.8249C22.5657 31.0577 21.0345 30.2864 19.497 29.5317C19.0353 29.3045 18.7976 28.9647 18.8216 28.4456C18.8299 28.2694 18.8216 28.0922 18.8216 27.915V26.3963H13.1929C13.1929 27.0718 13.1752 27.7264 13.1929 28.3768C13.2138 28.9501 12.9667 29.3087 12.4633 29.5567C10.9414 30.2999 9.43109 31.064 7.91656 31.8217C7.81233 31.8718 7.72477 31.9385 7.62887 31.9969L7.56216 32Z" fill="#fff"/>
<path d="M16.2502 0L21.9195 3.00717C22.0821 3.09368 22.2427 3.18228 22.4324 3.28547C22.3198 3.34593 22.2406 3.38971 22.1582 3.43453C20.1861 4.42059 18.213 5.40421 16.2388 6.38541C16.1088 6.4488 15.9592 6.4589 15.8218 6.41355C13.7892 5.41081 11.7629 4.39349 9.73661 3.37824C9.69075 3.35531 9.64905 3.32508 9.5813 3.28339C9.69908 3.21772 9.79602 3.16352 9.894 3.1114L15.7395 0.0281433C15.7457 0.0281433 15.7478 0.00938111 15.752 0H16.2502Z" fill="#fff"/>
<path d="M0 22.3124C0.0885034 22.3336 0.175268 22.3615 0.259544 22.3958C1.98567 23.2474 3.70762 24.1042 5.43687 24.9485C5.637 25.0465 5.69329 25.1633 5.69225 25.3759C5.68495 27.5836 5.69225 29.7923 5.69225 32H5.62866C5.53381 31.9416 5.44208 31.877 5.34202 31.827C3.82958 31.0786 2.31922 30.326 0.800521 29.5901C0.4357 29.415 0.143844 29.1961 0 28.8125V22.3124Z" fill="#fff"/>
<path d="M26.313 32C26.313 29.7819 26.313 27.5634 26.313 25.3446C26.313 25.1789 26.3317 25.0653 26.511 24.9777C28.2778 24.1157 30.0373 23.2401 31.7999 22.3718C31.8656 22.346 31.9337 22.3264 32.0032 22.3135V28.8135C31.8593 29.1971 31.5675 29.416 31.2068 29.5911C29.6881 30.327 28.1777 31.0796 26.6653 31.828C26.5611 31.878 26.4735 31.9427 26.3787 32.001L26.313 32Z" fill="#fff"/>
<path d="M9.43747 5.34827C9.57193 5.40768 9.6647 5.4452 9.75017 5.49003C11.4374 6.33016 13.1211 7.17307 14.8014 8.01876C14.9056 8.07296 15.0495 8.2095 15.0505 8.30853C15.0651 10.5569 15.0609 12.8052 15.0609 15.1213L12.9648 14.0164L10.3412 18.8039L13.0565 20.2215C12.9523 20.2819 12.8741 20.3309 12.7938 20.3705C10.8127 21.3615 8.83222 22.3493 6.85245 23.3339C6.72063 23.3932 6.57066 23.3977 6.43552 23.3464C4.40815 22.3562 2.38809 21.3524 0.36594 20.3507C0.302357 20.3184 0.240858 20.2799 0.157471 20.2298C0.261705 20.1683 0.34822 20.1152 0.435777 20.0704C2.29532 19.1156 4.15799 18.1681 6.01128 17.2018C6.45115 16.9725 6.84516 16.9631 7.27877 17.2091C7.73011 17.4676 8.19916 17.6917 8.68907 17.9461L11.3043 13.1794C10.9155 12.9855 10.5538 12.7896 10.1786 12.6218C9.6574 12.3904 9.44164 12.0109 9.44894 11.4397C9.46561 9.5239 9.45519 7.60807 9.45519 5.69224L9.43747 5.34827Z" fill="#fff"/>
<path d="M22.5626 5.3587V5.66307C22.5626 7.59975 22.5543 9.53747 22.5626 11.4741C22.5626 12.0203 22.3468 12.382 21.8549 12.6061C21.4786 12.7781 21.1127 12.9741 20.7083 13.1773C21.5828 14.77 22.4448 16.344 23.3214 17.9419C23.8145 17.6865 24.2981 17.453 24.7661 17.1904C25.1831 16.959 25.5583 16.9715 25.9763 17.1904C27.8525 18.1639 29.7287 19.1208 31.605 20.085C31.6779 20.1225 31.7488 20.1652 31.8509 20.2215C31.754 20.2778 31.681 20.3257 31.6029 20.3653C29.5995 21.3577 27.5951 22.3472 25.5896 23.3339C25.4665 23.3933 25.325 23.4019 25.1956 23.3579C23.1442 22.3458 21.0992 21.3201 19.0541 20.2966C19.0175 20.2718 18.9827 20.2447 18.9498 20.2153L21.6526 18.806L19.0291 14.0175L16.9444 15.1151C16.9381 14.9816 16.9308 14.891 16.9308 14.8024C16.9308 12.6676 16.9308 10.5329 16.9308 8.39818C16.9202 8.32342 16.935 8.24726 16.9728 8.18189C17.0106 8.11651 17.0692 8.06569 17.1393 8.03753C18.8727 7.17968 20.6009 6.31141 22.3312 5.44626C22.3948 5.41395 22.4625 5.39623 22.5626 5.3587Z" fill="#fff"/>
</g>
<defs>
<clipPath id="clip0_726_325425">
<rect width="32" height="32" fill="white"/>
</clipPath>
</defs>
</svg>
