<svg width="32" height="32" viewBox="0 0 32 32" fill="none" xmlns="http://www.w3.org/2000/svg">
<path fill-rule="evenodd" clip-rule="evenodd" d="M0.937457 2.93746C0 3.87491 0 5.38261 0 8.40022C0 11.4178 0 12.9255 0.937457 13.863C1.87491 14.8004 3.37817 14.8004 6.40022 14.8004H25.6009C28.6174 14.8004 30.1262 14.8004 31.0637 13.863C32.0011 12.9255 32 11.4167 32 8.40022C32 5.38372 32 3.87491 31.0637 2.93746C30.1273 2 28.6229 2 25.6009 2H6.40022C3.38261 2 1.87491 2 0.937457 2.93746ZM11.2051 11.2004C11.0471 11.201 10.8905 11.1704 10.7444 11.1103C10.5982 11.0502 10.4654 10.9619 10.3534 10.8504C10.2415 10.7389 10.1527 10.6063 10.0921 10.4604C10.0315 10.3145 10.0003 10.158 10.0003 10V6.80044C9.99539 6.63981 10.0228 6.47983 10.0809 6.32999C10.139 6.18015 10.2266 6.04351 10.3385 5.92815C10.4504 5.8128 10.5843 5.72109 10.7323 5.65846C10.8803 5.59584 11.0394 5.56357 11.2001 5.56357C11.3608 5.56357 11.5199 5.59584 11.6679 5.65846C11.8159 5.72109 11.9498 5.8128 12.0617 5.92815C12.1736 6.04351 12.2612 6.18015 12.3193 6.32999C12.3774 6.47983 12.4048 6.63981 12.3999 6.80044V10C12.3999 10.3174 12.2742 10.6219 12.0503 10.8468C11.8264 11.0718 11.5225 11.1989 11.2051 11.2004ZM18.4052 7.19983C18.0869 7.19983 17.7815 7.3263 17.5564 7.55142C17.3313 7.77654 17.2048 8.08186 17.2048 8.40022C17.2048 8.71858 17.3313 9.02391 17.5564 9.24902C17.7815 9.47414 18.0869 9.60061 18.4052 9.60061H25.6053C25.9237 9.60061 26.229 9.47414 26.4541 9.24902C26.6792 9.02391 26.8057 8.71858 26.8057 8.40022C26.8057 8.08186 26.6792 7.77654 26.4541 7.55142C26.229 7.3263 25.9237 7.19983 25.6053 7.19983H18.4052ZM6.40022 11.2004C6.08195 11.2001 5.7768 11.0735 5.55174 10.8485C5.32669 10.6234 5.20013 10.3183 5.19983 10V6.80044C5.19983 6.48208 5.3263 6.17676 5.55142 5.95164C5.77654 5.72652 6.08186 5.60006 6.40022 5.60006C6.71858 5.60006 7.02391 5.72652 7.24902 5.95164C7.47414 6.17676 7.60061 6.48208 7.60061 6.80044V10C7.60032 10.3183 7.47375 10.6234 7.2487 10.8485C7.02365 11.0735 6.71849 11.2001 6.40022 11.2004Z" fill="#fff"/>
<path fill-rule="evenodd" clip-rule="evenodd" d="M0.937457 18.9375C0 19.8749 0 21.3837 0 24.4002C0 27.4167 0 28.9255 0.937457 29.863C1.87491 30.8004 3.37817 30.8004 6.40022 30.8004H25.6009C28.6174 30.8004 30.1262 30.8004 31.0637 29.863C32.0011 28.9255 32 27.4223 32 24.4002C32 21.3782 32 19.8749 31.0637 18.9375C30.1273 18 28.6174 18 25.6009 18H6.40022C3.38261 18 1.87491 18 0.937457 18.9375ZM17.196 24.4002C17.196 24.0819 17.3224 23.7765 17.5475 23.5514C17.7727 23.3263 18.078 23.1998 18.3963 23.1998H25.5965C25.9148 23.1998 26.2201 23.3263 26.4453 23.5514C26.6704 23.7765 26.7968 24.0819 26.7968 24.4002C26.7968 24.7186 26.6704 25.0239 26.4453 25.249C26.2201 25.4741 25.9148 25.6006 25.5965 25.6006H18.3963C18.078 25.6006 17.7727 25.4741 17.5475 25.249C17.3224 25.0239 17.196 24.7186 17.196 24.4002ZM5.19983 26C5.19983 26.3184 5.3263 26.6237 5.55142 26.8488C5.77654 27.0739 6.08186 27.2004 6.40022 27.2004C6.71858 27.2004 7.02391 27.0739 7.24902 26.8488C7.47414 26.6237 7.60061 26.3184 7.60061 26V22.8004C7.60061 22.4821 7.47414 22.1768 7.24902 21.9516C7.02391 21.7265 6.71858 21.6001 6.40022 21.6001C6.08186 21.6001 5.77654 21.7265 5.55142 21.9516C5.3263 22.1768 5.19983 22.4821 5.19983 22.8004V26ZM11.2051 27.2004C11.0474 27.2005 10.8913 27.1696 10.7456 27.1093C10.5999 27.049 10.4675 26.9606 10.356 26.8491C10.2445 26.7376 10.1561 26.6052 10.0958 26.4595C10.0355 26.3138 10.0046 26.1577 10.0047 26V22.8004C9.99983 22.6398 10.0273 22.4798 10.0853 22.33C10.1434 22.1802 10.231 22.0435 10.3429 21.9282C10.4548 21.8128 10.5888 21.7211 10.7368 21.6585C10.8848 21.5958 11.0438 21.5636 11.2045 21.5636C11.3653 21.5636 11.5243 21.5958 11.6723 21.6585C11.8203 21.7211 11.9543 21.8128 12.0662 21.9282C12.1781 22.0435 12.2656 22.1802 12.3237 22.33C12.3818 22.4798 12.4093 22.6398 12.4044 22.8004V26C12.4045 26.1576 12.3736 26.3137 12.3134 26.4593C12.2532 26.6049 12.1649 26.7373 12.0535 26.8487C11.9421 26.9602 11.8099 27.0487 11.6643 27.109C11.5187 27.1693 11.3627 27.2004 11.2051 27.2004Z" fill="#fff"/>
</svg>
