<svg width="32" height="32" viewBox="0 0 32 32" fill="none" xmlns="http://www.w3.org/2000/svg">
<path d="M23.7177 32C23.0674 31.7176 22.8274 31.2273 22.8518 30.5261C22.8876 29.5077 22.8612 28.4866 22.8612 27.4325H15.0862C16.3003 25.1341 16.3022 22.8687 15.0937 20.5816H22.8575V20.1882C22.8575 19.2122 22.8575 18.2372 22.8575 17.2612C22.8575 16.719 23.0617 16.3059 23.5681 16.0932C24.0744 15.8805 24.5139 16.0376 24.8951 16.4188C27.1219 18.6494 29.3491 20.8803 31.5765 23.1115C31.7469 23.2837 31.8589 23.5125 32.0001 23.7139V24.2823C31.7845 24.56 31.5954 24.864 31.3497 25.1115C29.2791 27.1972 27.201 29.275 25.1154 31.3449C24.8678 31.5915 24.5638 31.7807 24.2862 31.9962L23.7177 32Z" fill="#fff"/>
<path d="M8.28235 0C8.93176 0.282353 9.17365 0.770823 9.14824 1.47294C9.11247 2.49129 9.13882 3.51341 9.13882 4.56659H16.9129C15.6998 6.86588 15.6969 9.13129 16.9129 11.4296H9.14259C9.14259 12.3652 9.14259 13.2659 9.14259 14.1666C9.14259 14.4169 9.15388 14.6673 9.13694 14.9195C9.12992 15.1348 9.05956 15.3432 8.93467 15.5186C8.80978 15.6941 8.63591 15.8288 8.43482 15.9059C8 16.0894 7.59529 16 7.23765 15.7007C7.14353 15.6245 7.06729 15.5351 6.98259 15.4513C4.87059 13.3412 2.76047 11.2292 0.652235 9.11529C0.405647 8.86682 0.215529 8.5647 0 8.28235V7.71765C0.215529 7.44 0.405647 7.13694 0.651294 6.88941C2.72188 4.80376 4.8 2.72565 6.88565 0.655059C7.13318 0.405647 7.43529 0.215529 7.71765 0H8.28235Z" fill="#fff"/>
<path d="M22.8706 13.7139C21.7398 13.7163 20.6337 13.3831 19.6924 12.7566C18.751 12.13 18.0168 11.2382 17.5825 10.194C17.1483 9.14988 17.0337 8.00039 17.2532 6.89107C17.4726 5.78175 18.0163 4.7625 18.8154 3.96236C19.6145 3.16222 20.633 2.61718 21.7421 2.39625C22.8511 2.17532 24.0007 2.28842 25.0455 2.72126C26.0902 3.15409 26.9829 3.88717 27.6108 4.8277C28.2386 5.76822 28.5732 6.87389 28.5723 8.00471C28.5683 9.51636 27.9666 10.9651 26.8984 12.0347C25.8302 13.1043 24.3823 13.7079 22.8706 13.7139Z" fill="#fff"/>
<path d="M3.42871 23.984C3.4319 22.8532 3.77055 21.7487 4.40179 20.8105C5.03303 19.8723 5.92847 19.1424 6.97474 18.7134C8.021 18.2844 9.17105 18.1754 10.2793 18.4004C11.3875 18.6254 12.404 19.1741 13.2002 19.9771C13.9964 20.7801 14.5364 21.8014 14.7518 22.9115C14.9672 24.0216 14.8484 25.1706 14.4105 26.2132C13.9725 27.2557 13.235 28.1449 12.2914 28.7681C11.3478 29.3912 10.2405 29.7204 9.10966 29.7139C7.59795 29.7027 6.15207 29.0939 5.0877 28.0203C4.02333 26.9468 3.42693 25.4957 3.42871 23.984Z" fill="#fff"/>
</svg>
