<svg width="32" height="32" viewBox="0 0 32 32" fill="none" xmlns="http://www.w3.org/2000/svg">
<g clip-path="url(#clip0_726_325454)">
<path d="M16.0006 1H17.4395C17.5283 1.0228 17.6185 1.0398 17.7095 1.05091C19.6344 1.16048 21.5185 1.64948 23.2537 2.48981C23.3229 2.53171 23.4042 2.54914 23.4845 2.5393C23.5648 2.52946 23.6394 2.49294 23.6964 2.43558C23.9641 2.21541 24.2916 2.08054 24.6367 2.04838C24.9818 2.01622 25.3286 2.08825 25.6323 2.25516C26.3086 2.58722 26.7901 3.1661 26.6816 3.91543C26.5809 4.60389 26.8665 4.96804 27.3291 5.32223C27.3623 5.34736 27.3921 5.37676 27.4177 5.40967C27.5416 5.58013 27.68 5.57902 27.877 5.51482C28.248 5.39757 28.6462 5.39787 29.017 5.51566C29.3879 5.63346 29.7132 5.86301 29.9486 6.17287C30.1839 6.48273 30.3177 6.85775 30.3316 7.2466C30.3456 7.63544 30.239 8.0191 30.0265 8.34503C29.907 8.52433 29.9236 8.64055 30.0265 8.81211C30.8937 10.3198 31.4823 11.9714 31.7642 13.6878C31.8605 14.27 31.9258 14.8566 32.0055 15.441V17.378C31.9668 17.6768 31.9258 17.9746 31.8882 18.2723C31.4233 21.9692 29.8118 25.0827 27.1144 27.6395C26.9384 27.8056 26.8598 27.9307 26.9406 28.193C27.1841 28.9877 26.8609 29.799 26.1658 30.2606C25.8431 30.4862 25.4558 30.6007 25.0623 30.5869C24.6687 30.5732 24.2904 30.4318 23.9842 30.1842C23.9243 30.1233 23.8449 30.0855 23.7599 30.0774C23.6748 30.0693 23.5897 30.0914 23.5194 30.1399C22.2046 30.8175 20.7899 31.2805 19.3288 31.5113C18.6824 31.6142 18.0305 31.6751 17.3819 31.7548H16.0625C15.9825 31.7342 15.9011 31.7191 15.819 31.7094C13.7353 31.5941 11.6978 31.0496 9.83432 30.11C9.77751 30.0905 9.71714 30.0834 9.65735 30.0893C9.59756 30.0953 9.53975 30.114 9.48788 30.1443C8.77839 30.6059 7.99364 30.6181 7.32289 30.1576C6.99799 29.9452 6.74882 29.6352 6.61119 29.2723C6.47356 28.9093 6.45457 28.5121 6.55695 28.1376C6.5808 28.066 6.58098 27.9886 6.55746 27.9168C6.53394 27.8451 6.48797 27.7828 6.42634 27.7392C5.13071 26.5591 4.05052 25.1625 3.2342 23.6117C2.0708 21.4382 1.44852 19.0163 1.42008 16.5512C1.42008 16.4405 1.37692 16.2667 1.3094 16.2424C0.615406 15.9978 0.221369 15.4908 0 14.8123V14.0608C0.272284 13.1753 0.814638 12.6086 1.77759 12.5112C1.844 12.5045 1.92591 12.3861 1.95358 12.3042C2.10301 11.8725 2.1993 11.4187 2.38636 11.0037C2.80253 10.0872 3.25745 9.18844 3.70572 8.28636C3.726 8.23415 3.75658 8.18655 3.79565 8.14641C3.83471 8.10627 3.88146 8.0744 3.93311 8.05271C3.98475 8.03102 4.04023 8.01995 4.09625 8.02016C4.15226 8.02037 4.20766 8.03185 4.25914 8.05392C4.48051 8.1303 4.61776 8.28968 4.59119 8.52323C4.56296 8.66532 4.50527 8.79993 4.42185 8.91837C3.79835 9.96496 3.30404 11.0833 2.94974 12.2489C2.85234 12.561 2.78372 12.8322 3.16115 13.0237C3.2818 13.0834 3.34157 13.2528 3.45446 13.3413C3.54412 13.4133 3.68247 13.4941 3.77988 13.4741C5.57755 13.1172 7.40313 12.9191 9.23552 12.882C9.29103 12.8758 9.34472 12.8585 9.3934 12.8311C9.44208 12.8037 9.48475 12.7668 9.51887 12.7226C9.9937 12.0076 10.6512 11.7154 11.499 11.8061C11.56 11.8109 11.6212 11.8024 11.6786 11.7812C11.7359 11.76 11.7879 11.7266 11.8311 11.6833C12.7271 10.4932 13.743 9.39834 14.8627 8.41586C14.9811 8.31182 14.9856 8.2277 14.9546 8.07163C14.8882 7.73958 14.8904 7.39757 14.8439 7.06108C14.8387 7.00674 14.8227 6.95399 14.7968 6.90591C14.771 6.85783 14.7358 6.81538 14.6934 6.78105C14.2009 6.487 13.6928 6.21986 13.1715 5.9808C12.1631 5.54803 11.136 5.15731 10.1398 4.76327C9.27868 5.90332 8.50057 6.09149 7.21884 5.4949C6.83256 5.8989 6.42745 6.31286 6.02788 6.74121C5.75559 7.03673 5.5143 7.08765 5.27965 6.88178C5.045 6.6759 5.04611 6.41801 5.3206 6.12801C5.68586 5.74283 6.05444 5.35986 6.44295 4.99903C6.60897 4.84518 6.65767 4.73118 6.58241 4.50095C6.45274 4.11196 6.45766 3.69067 6.59639 3.30481C6.73511 2.91896 6.99957 2.59097 7.34724 2.37359C7.68245 2.13742 8.088 2.02225 8.49731 2.04699C8.90661 2.07173 9.29534 2.23491 9.59967 2.50974C9.75905 2.64809 9.87084 2.6337 10.0358 2.5518C11.3204 1.90708 12.697 1.46466 14.1167 1.24019C14.741 1.14168 15.3719 1.07859 16.0006 1ZM10.6113 15.5262C10.5913 15.5473 10.5738 15.5708 10.5593 15.596C8.9062 18.9815 8.22019 22.7577 8.57694 26.5084C8.59298 26.5614 8.62143 26.6098 8.65993 26.6497C8.69842 26.6895 8.74586 26.7196 8.79831 26.7375C9.21486 26.8371 9.58568 27.0742 9.85092 27.4104C9.95054 27.5377 10.0247 27.5709 10.183 27.5112C15.0016 25.7241 19.2438 22.6607 22.4557 18.6486C22.5542 18.528 22.5863 18.4395 22.4955 18.2956C22.2769 17.9481 22.1901 17.5338 22.2509 17.1278C22.2808 16.9131 22.2155 16.8235 22.0295 16.7305C19.649 15.558 17.1153 14.7264 14.503 14.26C14.0149 14.1737 13.5234 14.1106 13.0442 14.0386C12.6269 15.2462 11.8853 15.6889 10.6113 15.5262ZM24.2698 19.2795C23.9953 19.2331 23.7883 19.2297 23.6057 19.1589C23.3843 19.0692 23.267 19.1257 23.1187 19.3083C20.7445 22.2525 17.9242 24.6798 14.596 26.4829C13.2832 27.1946 11.8886 27.7536 10.5261 28.3712C10.3579 28.4475 10.2483 28.514 10.2538 28.722C10.2461 28.891 10.225 29.059 10.1907 29.2246C10.2232 29.2475 10.2572 29.2683 10.2926 29.2865C14.5539 31.3202 18.8186 31.3272 23.0866 29.3076C23.2548 29.2279 23.2659 29.1338 23.2493 28.9678C23.1386 27.955 23.6555 27.1581 24.6107 26.857C24.6803 26.8438 24.7425 26.8053 24.7852 26.7488C24.828 26.6924 24.8482 26.6221 24.842 26.5515C24.8708 25.8232 24.904 25.0949 24.9306 24.3677C24.9428 24.0157 25.0966 23.8231 25.3866 23.8143C25.6766 23.8054 25.8736 24.0069 25.8659 24.3677C25.8526 25.0318 25.8659 25.7048 25.7851 26.36C25.7353 26.7607 25.8316 26.9832 26.1968 27.1072C26.223 27.1129 26.2497 27.1166 26.2765 27.1182C27.7218 25.8279 28.8847 24.2527 29.6922 22.4916C29.7288 22.4119 29.6612 22.237 29.5871 22.1596C28.3935 20.9515 27.0899 19.8572 25.6932 18.891C25.5825 18.8114 25.4851 18.6697 25.2892 18.8125C25.0933 18.9552 25.1553 19.0792 25.1885 19.2408C25.339 19.9625 25.4951 20.6797 25.6235 21.4102C25.681 21.7423 25.4906 21.9537 25.194 21.9714C24.9173 21.988 24.7513 21.812 24.6871 21.4512C24.5554 20.7262 24.4093 19.9946 24.2698 19.2795ZM7.09156 27.1215C7.62948 26.9876 7.65937 26.67 7.62284 26.2516C7.46033 24.36 7.56128 22.455 7.9228 20.5912C8.27234 18.7519 8.85985 16.9659 9.67051 15.2783C9.7181 15.1776 9.76569 15.0293 9.72585 14.9462C9.56425 14.5832 9.36834 14.2345 9.16578 13.8394C9.19014 13.8394 9.14808 13.8317 9.10823 13.8394C7.40147 14.0187 5.69583 14.2113 3.98464 14.3928C3.79205 14.4139 3.76327 14.5245 3.7511 14.6872C3.73024 14.9587 3.64329 15.221 3.49782 15.4511C3.35236 15.6813 3.15279 15.8724 2.91654 16.0077C2.74166 16.1184 2.55017 16.1926 2.32327 16.3066C2.57009 20.5203 4.09533 24.1541 7.09156 27.1215ZM26.0618 5.42738C24.8808 6.13023 24.106 5.9808 23.1231 4.87396C21.5791 5.33016 20.0972 5.97516 18.7112 6.79433C18.6337 6.84082 18.5928 6.98693 18.5795 7.09097C18.543 7.3865 18.574 7.69863 18.4932 7.97645C18.4234 8.21995 18.4788 8.34392 18.6537 8.49888C20.6543 10.2696 22.2989 12.4056 23.4994 14.7924C23.7131 15.2174 23.909 15.5672 24.4535 15.4698C24.5565 15.451 24.6981 15.4156 24.7435 15.3403C25.8942 13.4098 26.8087 11.3481 27.4675 9.19951C27.4958 9.14064 27.5001 9.07303 27.4795 9.01104C27.4588 8.94905 27.4148 8.89754 27.3568 8.86746C27.0836 8.68146 26.8665 8.42438 26.7288 8.12398C26.591 7.82358 26.538 7.49126 26.5754 7.16291C26.6041 6.84193 26.7414 6.5298 26.8454 6.16011L26.0618 5.42738ZM30.1848 21.3416C30.2047 21.2929 30.2335 21.2309 30.2578 21.159C30.6808 19.9722 30.9374 18.7326 31.0204 17.4754C31.2186 14.5976 30.6519 11.8891 29.2495 9.36332C29.1964 9.26703 29.0281 9.1331 28.9783 9.15634C28.7747 9.2471 28.4725 9.07886 28.3629 9.44191C27.6916 11.6634 26.7571 13.7967 25.5792 15.7963C25.5553 15.8508 25.5446 15.9101 25.5478 15.9696C25.5511 16.029 25.5683 16.0868 25.598 16.1383C25.7717 16.3609 25.8954 16.6182 25.9607 16.8929C26.026 17.1675 26.0314 17.453 25.9765 17.73C25.9574 17.7919 25.9609 17.8587 25.9865 17.9183C26.012 17.9779 26.0579 18.0265 26.116 18.0554C26.5167 18.3354 26.9262 18.6088 27.3025 18.9176C28.2677 19.7057 29.2207 20.5181 30.1848 21.3372V21.3416ZM12.5372 12.323C12.6458 12.5245 12.7651 12.7199 12.8947 12.9085C12.9701 13.0083 13.0763 13.0803 13.1969 13.1133C14.5251 13.3845 15.8777 13.5937 17.1971 13.9169C19.0488 14.3718 20.8142 15.0835 22.5243 15.9269C22.5752 15.9488 22.63 15.9601 22.6853 15.9601C22.7407 15.9601 22.7955 15.9488 22.8464 15.9269C22.8962 15.9004 22.9161 15.7233 22.8807 15.648C21.6872 13.1518 19.9995 10.9237 17.9198 9.09879C17.8783 9.06979 17.8304 9.05097 17.7803 9.04386C17.7301 9.03674 17.6789 9.04153 17.6309 9.05783C17.3481 9.20509 17.0339 9.28197 16.715 9.28197C16.3961 9.28197 16.082 9.20509 15.7991 9.05783C15.7517 9.04093 15.701 9.03503 15.651 9.04059C15.6009 9.04615 15.5528 9.06303 15.5102 9.08993C14.4025 10.0541 13.4053 11.1385 12.5372 12.323ZM22.9792 3.4085C22.9585 3.39059 22.9358 3.37501 22.9117 3.36201C22.7899 3.30224 22.6693 3.24247 22.5453 3.18713C20.1165 2.10271 17.4327 1.71931 14.7974 2.08028C13.2889 2.26762 11.8232 2.71001 10.463 3.38857C10.4117 3.41868 10.3677 3.45982 10.3342 3.50901C10.3007 3.55821 10.2785 3.61423 10.2693 3.67303C10.2775 3.72792 10.2993 3.77987 10.3328 3.82415C10.3662 3.86843 10.4102 3.90362 10.4608 3.9265C12.1643 4.43541 13.7996 5.14939 15.3309 6.05275C16.3758 5.3012 16.9779 5.30009 18.098 6.05275C19.4693 5.22467 20.9373 4.56854 22.469 4.09917C22.863 3.98184 23.0036 3.79257 22.9792 3.4085ZM2.83463 14.4216C2.83783 14.2939 2.81501 14.1669 2.76757 14.0482C2.72012 13.9296 2.64905 13.8219 2.55866 13.7316C2.46827 13.6413 2.36046 13.5704 2.24179 13.5231C2.12312 13.4758 1.99606 13.4531 1.86835 13.4564C1.62206 13.4665 1.38888 13.5701 1.21633 13.7462C1.04378 13.9222 0.944858 14.1574 0.939712 14.4039C0.93376 14.6559 1.02791 14.9 1.20154 15.0828C1.37517 15.2656 1.61415 15.3721 1.86614 15.379C1.99341 15.3838 2.1203 15.3623 2.23892 15.316C2.35754 15.2696 2.46536 15.1994 2.55567 15.1096C2.64599 15.0198 2.71687 14.9124 2.7639 14.794C2.81094 14.6757 2.83313 14.5489 2.8291 14.4216H2.83463ZM11.1592 14.6341C11.287 14.6378 11.4142 14.6153 11.533 14.5681C11.6518 14.5209 11.7598 14.45 11.8502 14.3597C11.9407 14.2693 12.0117 14.1614 12.0591 14.0427C12.1064 13.9239 12.129 13.7967 12.1255 13.669C12.1237 13.415 12.0212 13.1722 11.8404 12.9939C11.6596 12.8156 11.4153 12.7164 11.1614 12.7182C10.9075 12.7199 10.6647 12.8225 10.4864 13.0033C10.3081 13.1841 10.2089 13.4283 10.2106 13.6822C10.209 13.8069 10.2323 13.9307 10.279 14.0464C10.3257 14.162 10.3949 14.2672 10.4827 14.3558C10.5705 14.4444 10.675 14.5146 10.7902 14.5624C10.9054 14.6102 11.029 14.6346 11.1537 14.6341H11.1592ZM25.0789 17.3404C25.0824 17.2126 25.0598 17.0854 25.0124 16.9667C24.965 16.8479 24.8938 16.7402 24.8031 16.65C24.7125 16.5598 24.6044 16.4891 24.4855 16.4422C24.3666 16.3953 24.2393 16.3733 24.1115 16.3774C23.8638 16.3893 23.6302 16.496 23.4591 16.6755C23.288 16.855 23.1926 17.0935 23.1926 17.3415C23.1926 17.5894 23.288 17.8279 23.4591 18.0074C23.6302 18.1869 23.8638 18.2937 24.1115 18.3055C24.2389 18.3084 24.3655 18.2854 24.4838 18.2379C24.602 18.1904 24.7093 18.1193 24.7993 18.0291C24.8892 17.9388 24.9599 17.8312 25.007 17.7128C25.0541 17.5945 25.0767 17.4677 25.0734 17.3404H25.0789ZM7.43357 3.95196C7.42842 4.07938 7.44896 4.20654 7.49397 4.32587C7.53897 4.44519 7.60752 4.55425 7.69554 4.64654C7.78356 4.73882 7.88924 4.81246 8.0063 4.86307C8.12336 4.91367 8.2494 4.94021 8.37693 4.9411C8.50446 4.94199 8.63086 4.91722 8.74862 4.86826C8.86637 4.81929 8.97308 4.74714 9.06238 4.65609C9.15167 4.56504 9.22174 4.45696 9.26841 4.33827C9.31508 4.21959 9.33739 4.09272 9.33403 3.96524C9.33917 3.83781 9.31863 3.71065 9.27363 3.59133C9.22863 3.472 9.16008 3.36295 9.07206 3.27066C8.98404 3.17837 8.87836 3.10473 8.7613 3.05413C8.64424 3.00352 8.51819 2.97698 8.39067 2.97609C8.26314 2.9752 8.13673 2.99998 8.01898 3.04894C7.90122 3.0979 7.79452 3.17006 7.70522 3.26111C7.61592 3.35216 7.54585 3.46024 7.49919 3.57892C7.45252 3.69761 7.4302 3.82447 7.43357 3.95196ZM16.7034 6.43129C16.4515 6.43476 16.2109 6.53683 16.0334 6.71562C15.8558 6.8944 15.7554 7.13565 15.7537 7.3876C15.7562 7.63985 15.8565 7.8813 16.0334 8.06111C16.2103 8.24092 16.4501 8.34508 16.7023 8.35167C16.8276 8.35269 16.9518 8.32897 17.0679 8.28186C17.184 8.23476 17.2897 8.1652 17.3788 8.07718C17.468 7.98916 17.5389 7.8844 17.5875 7.76891C17.636 7.65343 17.6614 7.52949 17.6619 7.40421C17.6662 7.27652 17.6444 7.1493 17.5979 7.0303C17.5514 6.91131 17.4812 6.80301 17.3915 6.712C17.3018 6.62099 17.1946 6.54917 17.0763 6.50091C16.958 6.45266 16.8311 6.42897 16.7034 6.43129ZM26.0695 28.6789C26.0689 28.5543 26.0437 28.4311 25.9954 28.3163C25.9471 28.2014 25.8767 28.0972 25.7882 28.0096C25.6996 27.922 25.5947 27.8527 25.4794 27.8056C25.364 27.7585 25.2405 27.7346 25.116 27.7353C24.9914 27.7359 24.8682 27.7611 24.7534 27.8094C24.6385 27.8577 24.5343 27.9281 24.4467 28.0166C24.3591 28.1052 24.2898 28.2101 24.2427 28.3255C24.1956 28.4408 24.1717 28.5643 24.1724 28.6888C24.1737 28.9404 24.2749 29.1812 24.4537 29.3581C24.6326 29.5351 24.8744 29.6337 25.1259 29.6324C25.3775 29.6311 25.6183 29.5299 25.7952 29.3511C25.9722 29.1723 26.0708 28.9305 26.0695 28.6789ZM25.7773 3.93093C25.7741 3.67847 25.6707 3.43764 25.4899 3.26141C25.3091 3.08518 25.0657 2.98799 24.8133 2.99121C24.5608 2.99444 24.32 3.09783 24.1437 3.27863C23.9675 3.45942 23.8703 3.70282 23.8735 3.95528C23.8768 4.20773 23.9802 4.44857 24.161 4.6248C24.3418 4.80103 24.5851 4.89822 24.8376 4.89499C25.0901 4.89176 25.3309 4.78837 25.5071 4.60758C25.6834 4.42678 25.7805 4.18338 25.7773 3.93093ZM8.38214 27.6318C8.19056 27.6294 8.00259 27.684 7.84218 27.7888C7.68177 27.8936 7.55617 28.0437 7.48138 28.2201C7.40659 28.3965 7.38599 28.5912 7.4222 28.7793C7.45842 28.9675 7.54981 29.1406 7.68474 29.2766C7.81967 29.4126 7.99203 29.5054 8.17987 29.5432C8.36771 29.5809 8.56254 29.5619 8.73953 29.4885C8.91653 29.4151 9.06768 29.2908 9.17375 29.1312C9.27982 28.9717 9.33599 28.7841 9.33513 28.5925C9.32931 28.3409 9.22727 28.1011 9.05 27.9223C8.87274 27.7436 8.63373 27.6397 8.38214 27.6318ZM28.4869 6.36156C28.2384 6.36029 27.9993 6.45575 27.82 6.62773C27.6407 6.79971 27.5354 7.03471 27.5263 7.28298C27.5173 7.53125 27.6052 7.7733 27.7714 7.95789C27.9377 8.14248 28.1693 8.25513 28.4171 8.27197C28.6656 8.27324 28.9047 8.17778 29.084 8.0058C29.2633 7.83382 29.3686 7.59882 29.3777 7.35055C29.3868 7.10228 29.2989 6.86023 29.1326 6.67564C28.9663 6.49105 28.7347 6.3784 28.4869 6.36156Z" fill="#fff"/>
<path d="M2.82902 14.4216C2.83311 14.5494 2.81076 14.6766 2.76339 14.7954C2.71602 14.9141 2.64464 15.0218 2.55372 15.1117C2.4628 15.2016 2.35431 15.2717 2.23503 15.3177C2.11575 15.3637 1.98826 15.3846 1.86053 15.379C1.60854 15.3721 1.36956 15.2656 1.19593 15.0828C1.0223 14.9 0.928152 14.6559 0.934104 14.4039C0.93925 14.1574 1.03818 13.9222 1.21072 13.7462C1.38327 13.5702 1.61645 13.4665 1.86275 13.4564C1.99046 13.4531 2.11751 13.4758 2.23618 13.5231C2.35486 13.5704 2.46267 13.6413 2.55305 13.7316C2.64344 13.8219 2.71452 13.9296 2.76196 14.0482C2.8094 14.1669 2.83222 14.2939 2.82902 14.4216Z" fill="white"/>
<path d="M11.1537 14.6341C11.0285 14.6353 10.9044 14.6115 10.7885 14.564C10.6727 14.5166 10.5675 14.4464 10.4792 14.3578C10.3908 14.2691 10.321 14.1636 10.274 14.0476C10.2269 13.9316 10.2035 13.8074 10.2052 13.6822C10.2034 13.4283 10.3026 13.1841 10.4809 13.0033C10.6592 12.8225 10.902 12.7199 11.1559 12.7182C11.4099 12.7164 11.6541 12.8156 11.8349 12.9939C12.0157 13.1722 12.1182 13.415 12.12 13.6689C12.1235 13.7967 12.1009 13.9239 12.0536 14.0427C12.0063 14.1614 11.9352 14.2693 11.8447 14.3596C11.7543 14.45 11.6463 14.5209 11.5275 14.5681C11.4087 14.6153 11.2815 14.6378 11.1537 14.6341Z" fill="white"/>
<path d="M25.0734 17.3403C25.0767 17.4682 25.054 17.5954 25.0065 17.7141C24.9591 17.8329 24.8879 17.9408 24.7974 18.0311C24.7068 18.1214 24.5988 18.1923 24.4799 18.2395C24.3611 18.2867 24.2338 18.3092 24.106 18.3055C23.8583 18.2936 23.6247 18.1869 23.4536 18.0074C23.2825 17.8279 23.187 17.5894 23.187 17.3414C23.187 17.0935 23.2825 16.855 23.4536 16.6755C23.6247 16.496 23.8583 16.3893 24.106 16.3774C24.2337 16.3733 24.361 16.3953 24.48 16.4422C24.5989 16.4891 24.707 16.5598 24.7976 16.65C24.8882 16.7402 24.9594 16.8479 25.0068 16.9666C25.0543 17.0854 25.0769 17.2125 25.0734 17.3403Z" fill="white"/>
<path d="M7.43364 3.95196C7.43027 3.82447 7.45258 3.69761 7.49925 3.57893C7.54592 3.46024 7.61599 3.35216 7.70529 3.26111C7.79458 3.17006 7.90129 3.09791 8.01904 3.04894C8.1368 2.99998 8.2632 2.97521 8.39073 2.9761C8.51826 2.97699 8.6443 3.00353 8.76136 3.05413C8.87842 3.10474 8.98411 3.17838 9.07212 3.27066C9.16014 3.36295 9.22869 3.472 9.2737 3.59133C9.3187 3.71066 9.33924 3.83782 9.33409 3.96524C9.33746 4.09273 9.31514 4.21959 9.26847 4.33827C9.22181 4.45696 9.15174 4.56504 9.06244 4.65609C8.97314 4.74714 8.86644 4.8193 8.74868 4.86826C8.63093 4.91722 8.50452 4.942 8.377 4.94111C8.24947 4.94022 8.12342 4.91368 8.00636 4.86307C7.8893 4.81247 7.78362 4.73883 7.6956 4.64654C7.60759 4.55425 7.53904 4.4452 7.49403 4.32587C7.44903 4.20655 7.42849 4.07939 7.43364 3.95196Z" fill="white"/>
<path d="M16.7033 6.43131C16.8311 6.42899 16.9579 6.45267 17.0762 6.50093C17.1945 6.54919 17.3018 6.62101 17.3914 6.71202C17.4811 6.80303 17.5513 6.91132 17.5978 7.03032C17.6443 7.14932 17.6661 7.27654 17.6619 7.40422C17.6613 7.52951 17.636 7.65345 17.5874 7.76893C17.5388 7.88442 17.4679 7.98917 17.3788 8.0772C17.2896 8.16522 17.184 8.23478 17.0679 8.28188C16.9518 8.32898 16.8275 8.35271 16.7022 8.35168C16.4501 8.3451 16.2103 8.24094 16.0333 8.06113C15.8564 7.88131 15.7562 7.63987 15.7537 7.38762C15.7554 7.13567 15.8558 6.89442 16.0333 6.71564C16.2109 6.53685 16.4514 6.43478 16.7033 6.43131Z" fill="white"/>
<path d="M26.0695 28.6822C26.0708 28.9338 25.9722 29.1756 25.7952 29.3544C25.6182 29.5332 25.3775 29.6344 25.1259 29.6357C24.8743 29.6371 24.6326 29.5384 24.4537 29.3614C24.2749 29.1845 24.1737 28.9437 24.1724 28.6921C24.1717 28.5676 24.1956 28.4441 24.2427 28.3288C24.2897 28.2134 24.3591 28.1085 24.4467 28.02C24.5343 27.9314 24.6385 27.861 24.7533 27.8127C24.8682 27.7644 24.9914 27.7393 25.116 27.7386C25.2405 27.7379 25.364 27.7618 25.4793 27.8089C25.5947 27.856 25.6996 27.9253 25.7882 28.0129C25.8767 28.1005 25.9471 28.2047 25.9954 28.3196C26.0437 28.4344 26.0689 28.5576 26.0695 28.6822Z" fill="white"/>
<path d="M25.7773 3.93094C25.7805 4.1834 25.6833 4.42679 25.5071 4.60759C25.3308 4.78839 25.09 4.89177 24.8376 4.895C24.5851 4.89823 24.3417 4.80104 24.1609 4.62481C23.9801 4.44858 23.8767 4.20775 23.8735 3.95529C23.8719 3.83029 23.8949 3.70619 23.9413 3.59009C23.9876 3.47399 24.0564 3.36816 24.1437 3.27864C24.3199 3.09784 24.5607 2.99446 24.8132 2.99123C25.0657 2.988 25.3091 3.08519 25.4899 3.26142C25.6707 3.43765 25.774 3.67848 25.7773 3.93094Z" fill="white"/>
<path d="M8.38214 27.6318C8.63373 27.6396 8.87274 27.7436 9.05 27.9223C9.22727 28.101 9.32931 28.3409 9.33513 28.5925C9.33338 28.7803 9.2761 28.9635 9.1705 29.1188C9.0649 29.2742 8.91569 29.3948 8.74168 29.4655C8.56766 29.5362 8.37661 29.5539 8.19258 29.5162C8.00854 29.4786 7.83976 29.3874 7.70748 29.254C7.57519 29.1207 7.48532 28.9511 7.44918 28.7668C7.41304 28.5825 7.43224 28.3916 7.50437 28.2181C7.5765 28.0447 7.69833 27.8965 7.85453 27.7921C8.01072 27.6878 8.1943 27.632 8.38214 27.6318Z" fill="white"/>
<path d="M28.4868 6.36158C28.7347 6.37843 28.9663 6.49107 29.1325 6.67567C29.2988 6.86026 29.3867 7.10231 29.3777 7.35058C29.3686 7.59885 29.2633 7.83385 29.084 8.00583C28.9047 8.17781 28.6655 8.27327 28.4171 8.272C28.1692 8.25515 27.9377 8.14251 27.7714 7.95792C27.6051 7.77333 27.5172 7.53127 27.5263 7.283C27.5353 7.03473 27.6407 6.79973 27.8199 6.62776C27.9992 6.45578 28.2384 6.36032 28.4868 6.36158Z" fill="white"/>
<path d="M11.2897 15.0569C12.0844 15.0569 12.7286 14.4127 12.7286 13.618C12.7286 12.8234 12.0844 12.1791 11.2897 12.1791C10.495 12.1791 9.85083 12.8234 9.85083 13.618C9.85083 14.4127 10.495 15.0569 11.2897 15.0569Z" fill="#fff"/>
<path d="M16.6581 8.63724C17.3611 8.63724 17.931 8.06735 17.931 7.36436C17.931 6.66138 17.3611 6.09149 16.6581 6.09149C15.9551 6.09149 15.3853 6.66138 15.3853 7.36436C15.3853 8.06735 15.9551 8.63724 16.6581 8.63724Z" fill="#fff"/>
<path d="M8.30129 5.53807C9.1571 5.53807 9.85088 4.8443 9.85088 3.98849C9.85088 3.13268 9.1571 2.4389 8.30129 2.4389C7.44548 2.4389 6.75171 3.13268 6.75171 3.98849C6.75171 4.8443 7.44548 5.53807 8.30129 5.53807Z" fill="#fff"/>
<path d="M24.7933 5.20599C25.5269 5.20599 26.1215 4.61133 26.1215 3.87777C26.1215 3.14422 25.5269 2.54956 24.7933 2.54956C24.0597 2.54956 23.4651 3.14422 23.4651 3.87777C23.4651 4.61133 24.0597 5.20599 24.7933 5.20599Z" fill="#fff"/>
<path d="M28.612 8.96931C29.4984 8.96931 30.2169 8.25076 30.2169 7.36439C30.2169 6.47801 29.4984 5.75946 28.612 5.75946C27.7256 5.75946 27.0071 6.47801 27.0071 7.36439C27.0071 8.25076 27.7256 8.96931 28.612 8.96931Z" fill="#fff"/>
<path d="M24.1292 18.7095C24.9239 18.7095 25.5681 18.0653 25.5681 17.2706C25.5681 16.4759 24.9239 15.8317 24.1292 15.8317C23.3345 15.8317 22.6903 16.4759 22.6903 17.2706C22.6903 18.0653 23.3345 18.7095 24.1292 18.7095Z" fill="#fff"/>
<path d="M1.82618 15.8317C2.5903 15.8317 3.20974 15.2123 3.20974 14.4482C3.20974 13.6841 2.5903 13.0646 1.82618 13.0646C1.06207 13.0646 0.442627 13.6841 0.442627 14.4482C0.442627 15.2123 1.06207 15.8317 1.82618 15.8317Z" fill="#fff"/>
<path d="M8.35677 29.778C8.99863 29.778 9.51895 29.2577 9.51895 28.6158C9.51895 27.9739 8.99863 27.4536 8.35677 27.4536C7.71491 27.4536 7.19458 27.9739 7.19458 28.6158C7.19458 29.2577 7.71491 29.778 8.35677 29.778Z" fill="#fff"/>
<path d="M25.1253 30.11C25.8589 30.11 26.4535 29.5154 26.4535 28.7818C26.4535 28.0483 25.8589 27.4536 25.1253 27.4536C24.3918 27.4536 23.7971 28.0483 23.7971 28.7818C23.7971 29.5154 24.3918 30.11 25.1253 30.11Z" fill="#fff"/>
</g>
<defs>
<clipPath id="clip0_726_325454">
<rect width="32" height="32" fill="white"/>
</clipPath>
</defs>
</svg>
