<svg width="32" height="32" viewBox="0 0 32 32" fill="none" xmlns="http://www.w3.org/2000/svg">
<g clip-path="url(#clip0_726_325506)">
<path fill-rule="evenodd" clip-rule="evenodd" d="M7.01123 17.3506L15.0953 12.6818V22.7616L7.01123 26.808V17.3506ZM17.1162 22.7616L25.2009 26.808V17.3506L17.1162 12.6818V22.7616ZM8.32452 28.4054L16.1042 32L23.887 28.4054L16.1079 24.5114L8.32452 28.4054Z" fill="#fff"/>
<path fill-rule="evenodd" clip-rule="evenodd" d="M16.106 0C16.2387 -2.38476e-08 16.3701 0.0260843 16.4927 0.0767624C16.6152 0.127441 16.7266 0.201719 16.8204 0.295355C16.9142 0.38899 16.9886 0.500146 17.0394 0.622473C17.0901 0.744799 17.1162 0.875898 17.1161 1.00828V7.05674C17.1096 7.3198 17.0003 7.56991 16.8115 7.75369C16.6228 7.93746 16.3694 8.04033 16.1056 8.04033C15.8419 8.04033 15.5885 7.93746 15.3998 7.75369C15.211 7.56991 15.1017 7.3198 15.0952 7.05674V1.00828C15.0952 0.740867 15.2017 0.484407 15.3913 0.295318C15.5808 0.106229 15.8379 0 16.106 0Z" fill="#fff"/>
<path fill-rule="evenodd" clip-rule="evenodd" d="M7.01129 5.04019C7.27925 5.04035 7.53618 5.14665 7.72559 5.33572C7.91501 5.52479 8.02142 5.78116 8.02142 6.04847V12.0969C8.02472 12.2314 8.00103 12.3651 7.95173 12.4903C7.90244 12.6155 7.82854 12.7295 7.73438 12.8258C7.64023 12.9221 7.52772 12.9985 7.40349 13.0508C7.27925 13.103 7.1458 13.1299 7.01098 13.1299C6.87617 13.1299 6.74271 13.103 6.61848 13.0508C6.49424 12.9985 6.38174 12.9221 6.28758 12.8258C6.19343 12.7295 6.11953 12.6155 6.07023 12.4903C6.02094 12.3651 5.99725 12.2314 6.00055 12.0969V6.04847C6.00055 5.78106 6.10704 5.5246 6.29659 5.33551C6.48614 5.14642 6.74322 5.04019 7.01129 5.04019Z" fill="#fff"/>
<path fill-rule="evenodd" clip-rule="evenodd" d="M25.2009 7.05673C25.4688 7.05673 25.7257 7.1629 25.9151 7.35187C26.1046 7.54085 26.211 7.79715 26.211 8.06441V11.0886C26.2143 11.2231 26.1906 11.3568 26.1413 11.482C26.092 11.6072 26.0181 11.7213 25.924 11.8175C25.8298 11.9138 25.7173 11.9903 25.5931 12.0425C25.4688 12.0947 25.3354 12.1216 25.2006 12.1216C25.0657 12.1216 24.9323 12.0947 24.8081 12.0425C24.6838 11.9903 24.5713 11.9138 24.4772 11.8175C24.383 11.7213 24.3091 11.6072 24.2598 11.482C24.2105 11.3568 24.1868 11.2231 24.1901 11.0886V8.06441C24.1901 7.93203 24.2163 7.80094 24.2671 7.67865C24.3179 7.55635 24.3923 7.44524 24.4862 7.35166C24.5801 7.25808 24.6915 7.18387 24.8141 7.13326C24.9367 7.08266 25.0682 7.05665 25.2009 7.05673Z" fill="#fff"/>
</g>
<defs>
<clipPath id="clip0_726_325506">
<rect width="32" height="32" fill="white"/>
</clipPath>
</defs>
</svg>
