<svg width="32" height="32" viewBox="0 0 32 32" fill="none" xmlns="http://www.w3.org/2000/svg">
<g clip-path="url(#clip0_726_325478)">
<path d="M28.125 16.1251V16.6877C27.9532 17.5929 27.3734 18.1823 26.6218 18.6526C26.2793 18.8674 25.9647 19.1293 25.6329 19.3623C25.1727 19.6751 24.8338 20.1364 24.673 20.6691C24.4937 21.2446 24.3026 21.8158 24.1147 22.387C23.7517 23.4897 22.9626 24.0684 21.8072 24.076C21.1823 24.076 20.5574 24.076 19.9336 24.076C19.4299 24.0701 18.9381 24.2284 18.5324 24.5269C18.0213 24.902 17.5074 25.2739 16.9905 25.6425C16.0489 26.3168 15.0654 26.3147 14.128 25.6425C13.6212 25.2785 13.1112 24.9178 12.6098 24.5463C12.191 24.2354 11.6817 24.0709 11.1603 24.0781C10.5461 24.0781 9.93192 24.0781 9.31775 24.0781C8.16136 24.0706 7.37218 23.4919 7.01033 22.3892C6.82029 21.8072 6.62916 21.2242 6.44341 20.6401C6.28333 20.1294 5.95815 19.6864 5.51894 19.3806C5.16354 19.1261 4.8221 18.8502 4.45274 18.6183C3.7151 18.1566 3.16965 17.566 3 16.6877V16.1251C3.26199 15.3048 3.55941 14.4941 3.76878 13.6555C3.86115 13.2626 3.85894 12.8534 3.76234 12.4616C3.55404 11.6284 3.25984 10.8156 3 9.99201V9.50025C3.14495 8.59726 3.70328 8.00456 4.442 7.53213C4.80921 7.30128 5.14743 7.0146 5.50498 6.76442C5.96352 6.44945 6.29949 5.98607 6.4563 5.45234C6.65064 4.83173 6.84928 4.20253 7.06617 3.58514C7.2176 3.14336 7.50284 2.75969 7.88228 2.48743C8.26172 2.21516 8.71653 2.06781 9.18354 2.06583C9.71396 2.05617 10.2476 2.03469 10.7759 2.06583C11.5994 2.11952 12.2909 1.8629 12.948 1.37006C13.6481 0.848237 14.302 0.229776 15.1878 0H15.9394C16.3603 0.214743 16.7983 0.405865 17.1956 0.657115C17.6616 0.949166 18.0932 1.30135 18.5421 1.61702C18.9483 1.91476 19.4407 2.07161 19.9443 2.06368C20.5585 2.05724 21.1727 2.06368 21.7868 2.06368C22.9593 2.06368 23.7603 2.64993 24.1232 3.76016C24.3129 4.34354 24.5016 4.92693 24.6891 5.51032C24.8407 6.00196 25.1506 6.42967 25.5706 6.72684C25.9421 6.99312 26.2986 7.2841 26.683 7.53105C27.4228 8.00456 27.98 8.60477 28.1271 9.50132V10.0006C27.8652 10.8274 27.571 11.6466 27.3573 12.4852C27.2621 12.8656 27.2603 13.2635 27.3519 13.6448C27.5624 14.4823 27.8609 15.2994 28.125 16.1251ZM15.5765 23.4575C17.6304 23.4552 19.6376 22.8439 21.3442 21.7009C23.0508 20.5579 24.3802 18.9345 25.1642 17.0361C25.9483 15.1376 26.1518 13.0493 25.7491 11.0352C25.3465 9.02109 24.3556 7.17159 22.9019 5.72055C21.4481 4.26952 19.5968 3.28211 17.5819 2.88316C15.567 2.48422 13.4791 2.69166 11.5821 3.47925C9.68515 4.26685 8.06428 5.59923 6.92447 7.30794C5.78466 9.01666 5.17709 11.025 5.17857 13.079C5.18394 18.818 9.84924 23.4747 15.5765 23.4575Z" fill="#fff"/>
<path d="M9.62476 31.9968C9.19528 31.8658 8.93973 31.5673 8.74539 31.1722C8.38355 30.4356 7.98735 29.7151 7.61906 28.9807C7.58685 28.8952 7.52727 28.8227 7.44959 28.7745C7.37192 28.7264 7.2805 28.7052 7.18957 28.7144C6.31557 28.7219 5.44049 28.7037 4.56648 28.708C4.10264 28.708 3.72576 28.5652 3.49276 28.1454C3.25977 27.7255 3.32741 27.3293 3.569 26.9353C4.3521 25.6568 5.13126 24.378 5.90648 23.0989C5.94406 23.0377 5.98594 22.9797 6.02459 22.9228C6.1757 23.2186 6.34384 23.5054 6.52816 23.7818C7.15521 24.6214 7.99916 25.0896 9.05247 25.1282C9.72892 25.1529 10.4064 25.1432 11.0829 25.1379C11.4391 25.1303 11.7874 25.2439 12.0707 25.46C12.6076 25.8583 13.1444 26.2449 13.7006 26.6497C13.5932 26.829 13.4859 26.9954 13.3881 27.1629C12.5872 28.49 11.7776 29.8128 10.9884 31.1453C10.7736 31.5093 10.5278 31.8293 10.1294 31.9968H9.62476Z" fill="#fff"/>
<path d="M20.9999 31.9968C20.6005 31.8261 20.3557 31.5093 20.1409 31.1442C19.2519 29.6518 18.3478 28.1679 17.4233 26.6346C18.0869 26.1697 18.7397 25.6951 19.4162 25.2571C19.5751 25.1497 19.8156 25.1497 20.0196 25.1497C20.5081 25.1346 20.9988 25.1271 21.4874 25.1497C23.1838 25.2216 24.395 24.5183 25.0854 22.911C25.1391 22.9861 25.1874 23.043 25.226 23.1053C25.9991 24.3766 26.769 25.6511 27.5463 26.9192C27.7944 27.324 27.8685 27.732 27.629 28.1582C27.3896 28.5845 27.0149 28.7144 26.5553 28.7123C25.6802 28.7123 24.8051 28.7252 23.9301 28.7187C23.844 28.7095 23.7573 28.729 23.6833 28.774C23.6094 28.819 23.5523 28.8871 23.521 28.9678C23.1677 29.6754 22.7855 30.3637 22.4387 31.0777C22.2411 31.4825 21.9931 31.8196 21.569 32.0011L20.9999 31.9968Z" fill="#fff"/>
<path d="M15.5538 22.3902C13.7104 22.3887 11.9088 21.8406 10.3769 20.8151C8.84501 19.7897 7.65164 18.333 6.94771 16.6292C6.24378 14.9255 6.06092 13.0513 6.42224 11.2436C6.78357 9.43591 7.67286 7.77599 8.97764 6.47377C10.2824 5.17154 11.9441 4.2855 13.7525 3.92772C15.5608 3.56993 17.4347 3.75647 19.1371 4.46373C20.8394 5.171 22.2938 6.36722 23.3162 7.90111C24.3387 9.43501 24.8833 11.2377 24.8812 13.0811C24.8803 14.3049 24.6384 15.5165 24.1691 16.6468C23.6998 17.777 23.0125 18.8037 22.1463 19.6682C21.2801 20.5327 20.252 21.2181 19.1209 21.6851C17.9897 22.1522 16.7776 22.3918 15.5538 22.3902ZM18.5785 19.2657C19.6329 19.2002 20.4038 18.2757 20.2223 17.2471C20.0946 16.5202 19.9657 15.7933 19.824 15.0685C19.7969 14.9754 19.7978 14.8764 19.8266 14.7838C19.8555 14.6912 19.9109 14.6091 19.9861 14.5478C20.5079 14.07 21.0104 13.5707 21.5226 13.0822C22.0519 12.5775 22.2667 11.9784 22.0262 11.2708C21.7857 10.5632 21.2402 10.2089 20.5015 10.123C19.7993 10.04 19.0989 9.94226 18.4002 9.82988C18.3307 9.81296 18.2652 9.7823 18.2077 9.7397C18.1501 9.69711 18.1017 9.64344 18.0652 9.58185C17.741 8.95408 17.4314 8.3188 17.1365 7.676C16.8251 6.99848 16.3237 6.5851 15.571 6.58188C14.8183 6.57866 14.2976 7.00063 13.983 7.68888C13.6888 8.33312 13.3774 8.96768 13.0542 9.59581C13.0201 9.65348 12.9748 9.70373 12.921 9.74357C12.8671 9.78341 12.8058 9.81203 12.7407 9.82773C12.032 9.94154 11.3201 10.0425 10.6083 10.1251C9.89639 10.2078 9.34986 10.5546 9.10506 11.2579C8.86025 11.9612 9.06533 12.5646 9.59253 13.0704C10.1036 13.561 10.6072 14.0582 11.129 14.5371C11.2055 14.5963 11.263 14.6767 11.2943 14.7683C11.3256 14.86 11.3294 14.9587 11.3051 15.0524C11.1677 15.7568 11.0539 16.4655 10.9186 17.1698C10.7833 17.8742 10.998 18.4754 11.5789 18.9006C12.1598 19.3258 12.76 19.3129 13.3742 18.9876C14.0184 18.6472 14.6626 18.3101 15.2983 17.9536C15.3786 17.902 15.4724 17.8753 15.5678 17.8766C15.6633 17.8779 15.7562 17.9073 15.8351 17.9611C16.4514 18.3058 17.0742 18.6429 17.7066 18.9575C17.9906 19.0783 18.2817 19.1812 18.5785 19.2657Z" fill="#fff"/>
<path d="M21.0545 11.9075C20.9776 12.0505 20.885 12.1844 20.7786 12.307C20.1784 12.8997 19.5717 13.488 18.9533 14.0571C18.8423 14.1511 18.7601 14.2746 18.7162 14.4133C18.6723 14.5519 18.6685 14.7002 18.7052 14.8409C18.8652 15.6784 19.0112 16.5192 19.1669 17.3577C19.2174 17.6262 19.1616 17.8581 18.9382 18.0256C18.7149 18.1931 18.4722 18.1673 18.2339 18.0395C17.5113 17.6498 16.7801 17.2729 16.066 16.866C15.7235 16.6705 15.4315 16.6512 15.0793 16.8584C14.3781 17.2654 13.6512 17.6283 12.9383 18.0159C12.6924 18.1501 12.4465 18.206 12.2049 18.0363C11.9634 17.8667 11.9226 17.6068 11.9795 17.3148C12.1394 16.488 12.2726 15.6559 12.4261 14.827C12.4597 14.6855 12.453 14.5375 12.4067 14.3997C12.3603 14.2619 12.2763 14.1399 12.1641 14.0475C11.5596 13.4902 10.9745 12.9115 10.3786 12.3445C10.1638 12.1416 9.99309 11.9301 10.108 11.608C10.2229 11.2859 10.472 11.2193 10.7694 11.1785C11.5951 11.0711 12.4175 10.9433 13.2389 10.8435C13.5611 10.8048 13.7382 10.6427 13.8692 10.3646C14.2192 9.62052 14.5886 8.88717 14.9429 8.14523C15.0707 7.87788 15.2199 7.64595 15.5517 7.64166C15.8835 7.63736 16.051 7.88002 16.1831 8.15812C16.5363 8.89898 16.9068 9.63233 17.2568 10.3764C17.3083 10.5067 17.3954 10.6198 17.5082 10.7027C17.621 10.7857 17.7549 10.8353 17.8946 10.8456C18.7407 10.953 19.5857 11.0722 20.4307 11.1871C20.8237 11.244 21.0599 11.477 21.0545 11.9075Z" fill="#fff"/>
</g>
<defs>
<clipPath id="clip0_726_325478">
<rect width="32" height="32" fill="white"/>
</clipPath>
</defs>
</svg>
